# xmcd CD database file
#
# Track frame offsets:
#	183
#	10920
#	21308
#	31995
#	43508
#	52920
#	64570
#	75295
#	85658
#	98345
#	111458
#	122770
#	131920
#	145033
#
# Disc length: 2065 seconds
#
# Revision: 0
# Processed by: cddbd v1.4PL0 Copyright (c) Steve Scherf et al.
# Submitted via: Feurio! 1.64 - http://www.feurio.com
#
DISCID=a7080f0e
DTITLE=Patsy Cline - The Heart You Break
DYEAR=1988
DGENRE=Country
TTITLE0=Honky Tonk Merry-Go-Round
TTITLE1=Pick Me Up On Your Way Down
TTITLE2=Stop, Look And Listen
TTITLE3=The Heart You Break May Be Your Own
TTITLE4=Love Me Love Me Honey Do
TTITLE5=Never No More
TTITLE6=I Can See an Angel
TTITLE7=Too Many Secrets
TTITLE8=Yes I Understand
TTITLE9=If I Could See The World (Through The Eyes Of A Child)
TTITLE10=Cry Not For Me
TTITLE11=Come On In
TTITLE12=Life's Railway To Heaven
TTITLE13=Turn The Cards Slowly
EXTD=
EXTT0=
EXTT1=
EXTT2=
EXTT3=
EXTT4=
EXTT5=
EXTT6=
EXTT7=
EXTT8=
EXTT9=
EXTT10=
EXTT11=
EXTT12=
EXTT13=
PLAYORDER=
